# MagicaVoxel @ Ephtracy

# group
o 

# material
mtllib bench.mtl
usemtl palette

# normals
vn -1 0 0
vn 1 0 0
vn 0 0 1
vn 0 0 -1
vn 0 -1 0
vn 0 1 0

# texcoords
vt 0.271484 0.5
vt 0.298828 0.5
vt 0.302734 0.5
vt 0.306641 0.5

# verts
v -1.4 0 1.3
v -1.4 0 0.9
v -1.4 0 -0.7
v -1.4 0 -1.1
v -1.4 0.3 0.9
v -1.4 0.3 -0.7
v -1.4 0.4 1.3
v -1.4 0.4 -1.1
v -1.4 0.5 1.3
v -1.4 0.5 -1.1
v -1.4 0.6 0.4
v -1.4 0.6 -1.1
v -1.4 0.7 0.4
v -1.4 0.7 -1.1
v -1.4 0.8 1.3
v -1.4 0.8 0
v -1.4 0.9 1.3
v -1.4 0.9 0
v -1.4 1 1.3
v -1.4 1 -1.1
v -0.6 0 1.3
v -0.6 0 0.9
v -0.6 0 -0.7
v -0.6 0 -1.1
v -0.6 0.3 0.9
v -0.6 0.3 -0.7
v -0.6 0.4 1.3
v -0.6 0.4 -1.1
v -1.3 0.5 1.3
v -1.3 0.5 -1.1
v -1.3 0.6 0.4
v -1.3 0.6 -1.1
v -1.3 0.7 0.4
v -1.3 0.7 -1.1
v -1.3 0.8 1.3
v -1.3 0.8 0
v -1.3 0.9 1.3
v -1.3 0.9 0
v -1.3 1 1.3
v -1.3 1 -1.1
v -1.2 0 1.3
v -1.2 0 0.9
v -1.2 0 -0.7
v -1.2 0 -1.1
v -1.2 0.3 0.9
v -1.2 0.3 -0.7
v -1.2 0.4 1.3
v -1.2 0.4 -0.4
v -1.2 0.4 -1.1
v -0.4 0 1.3
v -0.4 0 0.9
v -0.4 0 -0.7
v -0.4 0 -1.1
v -0.4 0.3 0.9
v -0.4 0.3 -0.7
v -0.4 0.4 1.3
v -0.4 0.4 -1.1
v -0.4 0.5 1.3
v -0.4 0.5 -1.1
v -1.4 0 1.3
v -1.4 0.4 1.3
v -1.4 0.5 1.3
v -1.4 0.8 1.3
v -1.4 0.9 1.3
v -1.4 1 1.3
v -1.3 0.5 1.3
v -1.3 0.8 1.3
v -1.3 0.9 1.3
v -1.3 1 1.3
v -1.2 0 1.3
v -1.2 0.4 1.3
v -1.1 0.4 1.3
v -1.1 0.5 1.3
v -1 0.4 1.3
v -1 0.5 1.3
v -0.6 0 1.3
v -0.6 0.4 1.3
v -0.6 0.5 1.3
v -0.5 0.4 1.3
v -0.5 0.5 1.3
v -0.4 0 1.3
v -0.4 0.4 1.3
v -0.4 0.5 1.3
v -1.4 0 -0.7
v -1.4 0.3 -0.7
v -1.2 0 -0.7
v -1.2 0.3 -0.7
v -0.6 0 -0.7
v -0.6 0.3 -0.7
v -0.4 0 -0.7
v -0.4 0.3 -0.7
v -1.4 0 0.9
v -1.4 0.3 0.9
v -1.2 0 0.9
v -1.2 0.3 0.9
v -0.6 0 0.9
v -0.6 0.3 0.9
v -0.4 0 0.9
v -0.4 0.3 0.9
v -1.4 0 -1.1
v -1.4 0.4 -1.1
v -1.4 0.5 -1.1
v -1.4 0.6 -1.1
v -1.4 0.7 -1.1
v -1.4 1 -1.1
v -1.3 0.5 -1.1
v -1.3 0.6 -1.1
v -1.3 0.7 -1.1
v -1.3 1 -1.1
v -1.2 0 -1.1
v -1.2 0.4 -1.1
v -1.2 0.5 -1.1
v -1.1 0.4 -1.1
v -1.1 0.5 -1.1
v -0.8 0.4 -1.1
v -0.8 0.5 -1.1
v -0.7 0.4 -1.1
v -0.7 0.5 -1.1
v -0.6 0 -1.1
v -0.6 0.4 -1.1
v -0.4 0 -1.1
v -0.4 0.4 -1.1
v -0.4 0.5 -1.1
v -1.4 0 1.3
v -1.2 0 1.3
v -0.6 0 1.3
v -0.4 0 1.3
v -1.4 0 0.9
v -1.2 0 0.9
v -0.6 0 0.9
v -0.4 0 0.9
v -1.4 0 -0.7
v -1.2 0 -0.7
v -0.6 0 -0.7
v -0.4 0 -0.7
v -1.4 0 -1.1
v -1.2 0 -1.1
v -0.6 0 -1.1
v -0.4 0 -1.1
v -1.4 0.3 0.9
v -1.2 0.3 0.9
v -0.6 0.3 0.9
v -0.4 0.3 0.9
v -1.4 0.3 -0.7
v -1.2 0.3 -0.7
v -0.6 0.3 -0.7
v -0.4 0.3 -0.7
v -1.2 0.4 1.3
v -1.1 0.4 1.3
v -1 0.4 1.3
v -0.6 0.4 1.3
v -0.8 0.4 0.6
v -0.7 0.4 0.6
v -1.1 0.4 0
v -1 0.4 0
v -1.2 0.4 -0.4
v -1.1 0.4 -0.4
v -1.2 0.4 -1.1
v -1.1 0.4 -1.1
v -0.8 0.4 -1.1
v -0.7 0.4 -1.1
v -0.6 0.4 -1.1
v -1.3 0.5 1.3
v -1.1 0.5 1.3
v -1 0.5 1.3
v -0.6 0.5 1.3
v -0.5 0.5 1.3
v -0.4 0.5 1.3
v -0.8 0.5 0.6
v -0.7 0.5 0.6
v -1.1 0.5 0
v -1 0.5 0
v -1.2 0.5 -0.4
v -1.1 0.5 -0.4
v -0.6 0.5 -0.7
v -0.5 0.5 -0.7
v -1.3 0.5 -1.1
v -1.2 0.5 -1.1
v -1.1 0.5 -1.1
v -0.8 0.5 -1.1
v -0.7 0.5 -1.1
v -0.4 0.5 -1.1
v -1.4 1 1.3
v -1.3 1 1.3
v -1.4 1 -1.1
v -1.3 1 -1.1

# faces
f 5/3/1 2/3/1 1/3/1
f 6/3/1 4/3/1 3/3/1
f 7/3/1 5/3/1 1/3/1
f 7/3/1 6/3/1 5/3/1
f 8/3/1 4/3/1 6/3/1
f 8/3/1 6/3/1 7/3/1
f 9/2/1 8/2/1 7/2/1
f 10/2/1 8/2/1 9/2/1
f 11/4/1 10/4/1 9/4/1
f 12/4/1 10/4/1 11/4/1
f 13/4/1 11/4/1 9/4/1
f 13/1/1 12/1/1 11/1/1
f 14/1/1 12/1/1 13/1/1
f 15/4/1 13/4/1 9/4/1
f 15/4/1 14/4/1 13/4/1
f 16/4/1 14/4/1 15/4/1
f 17/1/1 16/1/1 15/1/1
f 18/4/1 14/4/1 16/4/1
f 18/1/1 16/1/1 17/1/1
f 19/4/1 18/4/1 17/4/1
f 20/4/1 14/4/1 18/4/1
f 20/4/1 18/4/1 19/4/1
f 25/3/1 22/3/1 21/3/1
f 26/3/1 24/3/1 23/3/1
f 27/3/1 25/3/1 21/3/1
f 27/3/1 26/3/1 25/3/1
f 28/3/1 24/3/1 26/3/1
f 28/3/1 26/3/1 27/3/1
f 29/4/2 30/4/2 31/4/2
f 31/4/2 30/4/2 32/4/2
f 29/4/2 31/4/2 33/4/2
f 31/1/2 32/1/2 33/1/2
f 33/1/2 32/1/2 34/1/2
f 29/4/2 33/4/2 35/4/2
f 33/4/2 34/4/2 35/4/2
f 35/4/2 34/4/2 36/4/2
f 35/1/2 36/1/2 37/1/2
f 36/4/2 34/4/2 38/4/2
f 37/1/2 36/1/2 38/1/2
f 37/4/2 38/4/2 39/4/2
f 38/4/2 34/4/2 40/4/2
f 39/4/2 38/4/2 40/4/2
f 41/3/2 42/3/2 45/3/2
f 43/3/2 44/3/2 46/3/2
f 41/3/2 45/3/2 47/3/2
f 45/3/2 46/3/2 47/3/2
f 47/3/2 46/3/2 48/3/2
f 46/3/2 44/3/2 49/3/2
f 48/3/2 46/3/2 49/3/2
f 50/3/2 51/3/2 54/3/2
f 52/3/2 53/3/2 55/3/2
f 50/3/2 54/3/2 56/3/2
f 54/3/2 55/3/2 56/3/2
f 55/3/2 53/3/2 57/3/2
f 56/3/2 55/3/2 57/3/2
f 56/2/2 57/2/2 58/2/2
f 58/2/2 57/2/2 59/2/2
f 66/2/3 62/2/3 61/2/3
f 66/4/3 63/4/3 62/4/3
f 67/1/3 64/1/3 63/1/3
f 67/4/3 63/4/3 66/4/3
f 68/4/3 65/4/3 64/4/3
f 68/1/3 64/1/3 67/1/3
f 69/4/3 65/4/3 68/4/3
f 70/3/3 61/3/3 60/3/3
f 71/2/3 66/2/3 61/2/3
f 71/3/3 61/3/3 70/3/3
f 72/2/3 66/2/3 71/2/3
f 73/2/3 66/2/3 72/2/3
f 74/1/3 73/1/3 72/1/3
f 75/1/3 73/1/3 74/1/3
f 77/2/3 75/2/3 74/2/3
f 78/2/3 75/2/3 77/2/3
f 79/3/3 77/3/3 76/3/3
f 79/1/3 78/1/3 77/1/3
f 80/1/3 78/1/3 79/1/3
f 81/3/3 79/3/3 76/3/3
f 82/2/3 80/2/3 79/2/3
f 82/3/3 79/3/3 81/3/3
f 83/2/3 80/2/3 82/2/3
f 86/3/3 85/3/3 84/3/3
f 87/3/3 85/3/3 86/3/3
f 90/3/3 89/3/3 88/3/3
f 91/3/3 89/3/3 90/3/3
f 92/3/4 93/3/4 94/3/4
f 94/3/4 93/3/4 95/3/4
f 96/3/4 97/3/4 98/3/4
f 98/3/4 97/3/4 99/3/4
f 101/2/4 102/2/4 106/2/4
f 102/4/4 103/4/4 106/4/4
f 103/1/4 104/1/4 107/1/4
f 106/4/4 103/4/4 107/4/4
f 104/4/4 105/4/4 108/4/4
f 107/1/4 104/1/4 108/1/4
f 108/4/4 105/4/4 109/4/4
f 100/3/4 101/3/4 110/3/4
f 101/2/4 106/2/4 111/2/4
f 110/3/4 101/3/4 111/3/4
f 111/2/4 106/2/4 112/2/4
f 111/1/4 112/1/4 113/1/4
f 113/1/4 112/1/4 114/1/4
f 113/2/4 114/2/4 115/2/4
f 115/2/4 114/2/4 116/2/4
f 115/1/4 116/1/4 117/1/4
f 117/1/4 116/1/4 118/1/4
f 117/2/4 118/2/4 120/2/4
f 119/3/4 120/3/4 121/3/4
f 120/2/4 118/2/4 122/2/4
f 121/3/4 120/3/4 122/3/4
f 122/2/4 118/2/4 123/2/4
f 128/3/5 125/3/5 124/3/5
f 129/3/5 125/3/5 128/3/5
f 130/3/5 127/3/5 126/3/5
f 131/3/5 127/3/5 130/3/5
f 136/3/5 133/3/5 132/3/5
f 137/3/5 133/3/5 136/3/5
f 138/3/5 135/3/5 134/3/5
f 139/3/5 135/3/5 138/3/5
f 144/3/5 141/3/5 140/3/5
f 145/3/5 141/3/5 144/3/5
f 146/3/5 143/3/5 142/3/5
f 147/3/5 143/3/5 146/3/5
f 152/2/5 151/2/5 150/2/5
f 153/2/5 151/2/5 152/2/5
f 154/2/5 149/2/5 148/2/5
f 154/1/5 150/1/5 149/1/5
f 155/2/5 152/2/5 150/2/5
f 155/1/5 150/1/5 154/1/5
f 156/2/5 154/2/5 148/2/5
f 156/2/5 155/2/5 154/2/5
f 157/2/5 155/2/5 156/2/5
f 158/1/5 157/1/5 156/1/5
f 159/2/5 155/2/5 157/2/5
f 159/1/5 157/1/5 158/1/5
f 160/1/5 153/1/5 152/1/5
f 160/2/5 155/2/5 159/2/5
f 160/2/5 152/2/5 155/2/5
f 161/2/5 151/2/5 153/2/5
f 161/1/5 153/1/5 160/1/5
f 162/2/5 151/2/5 161/2/5
f 165/2/6 166/2/6 169/2/6
f 169/2/6 166/2/6 170/2/6
f 163/2/6 164/2/6 171/2/6
f 164/1/6 165/1/6 171/1/6
f 165/2/6 169/2/6 172/2/6
f 171/1/6 165/1/6 172/1/6
f 163/2/6 171/2/6 173/2/6
f 171/2/6 172/2/6 173/2/6
f 173/2/6 172/2/6 174/2/6
f 170/2/6 166/2/6 175/2/6
f 166/1/6 167/1/6 175/1/6
f 167/2/6 168/2/6 176/2/6
f 175/1/6 167/1/6 176/1/6
f 163/2/6 173/2/6 177/2/6
f 173/1/6 174/1/6 178/1/6
f 177/2/6 173/2/6 178/2/6
f 174/2/6 172/2/6 179/2/6
f 178/1/6 174/1/6 179/1/6
f 169/1/6 170/1/6 180/1/6
f 179/2/6 172/2/6 180/2/6
f 172/2/6 169/2/6 180/2/6
f 170/2/6 175/2/6 181/2/6
f 180/1/6 170/1/6 181/1/6
f 175/2/6 176/2/6 181/2/6
f 176/2/6 168/2/6 182/2/6
f 181/2/6 176/2/6 182/2/6
f 183/4/6 184/4/6 185/4/6
f 185/4/6 184/4/6 186/4/6
